<svg xmlns="http://www.w3.org/2000/svg" width="50.132" height="50.132" viewBox="0 0 50.132 50.132"><defs><style>.a{fill:#009d34;}</style></defs><path class="a" d="M36.147,17.113a1.958,1.958,0,0,1,0,2.77L23.009,33.02a1.959,1.959,0,0,1-2.77,0l-6.254-6.254A1.958,1.958,0,0,1,16.755,24l4.869,4.869L33.377,17.113a1.959,1.959,0,0,1,2.77,0Zm13.986,7.954A25.066,25.066,0,1,1,25.066,0,25.052,25.052,0,0,1,50.132,25.067Zm-3.917,0a21.15,21.15,0,1,0-21.15,21.15A21.138,21.138,0,0,0,46.216,25.067Zm0,0" transform="translate(0 0)"/></svg>